<svg width="147" height="56" viewBox="0 0 147 56" fill="none" xmlns="http://www.w3.org/2000/svg">
<path d="M28.0405 45.5003C37.7195 45.5003 45.5662 37.665 45.5662 27.9999C45.5662 18.3347 37.7195 10.4995 28.0405 10.4995C18.3613 10.4995 10.5148 18.3347 10.5148 27.9999C10.5148 37.665 18.3613 45.5003 28.0405 45.5003Z" fill="#FFCC2F"/>
<path d="M28.0405 10.1819C32.9628 10.1819 37.4185 12.1734 40.6648 15.3939C43.8899 18.6143 45.8844 23.0636 45.8844 28.0001C45.8844 32.9366 43.8899 37.3646 40.6648 40.6062C37.4398 43.8266 32.9841 45.8182 28.0405 45.8182C23.1181 45.8182 18.6623 43.8266 15.416 40.6062C12.1698 37.3858 10.1965 32.9153 10.1965 28.0001C10.1965 23.0848 12.191 18.6355 15.416 15.3939C18.6411 12.1523 23.1181 10.1819 28.0405 10.1819ZM40.1981 15.86C37.1003 12.7455 32.7931 10.8175 28.0405 10.8175C23.2878 10.8175 18.9806 12.7455 15.8828 15.86C12.7851 18.9745 10.8331 23.2543 10.8331 28.0001C10.8331 32.7459 12.7638 37.0468 15.8828 40.1402C19.0018 43.2336 23.3091 45.1827 28.0405 45.1827C32.7719 45.1827 37.1003 43.2546 40.1981 40.1402C43.296 37.0256 45.248 32.7246 45.248 28.0001C45.248 23.2755 43.317 18.9533 40.1981 15.86Z" fill="#4C4C4C"/>
<path fill-rule="evenodd" clip-rule="evenodd" d="M28.0405 35.0552C32.9206 35.0552 37.355 37.0468 40.5376 40.2884C37.355 43.5088 32.9418 45.5217 28.0405 45.5217C23.1604 45.5217 18.726 43.5301 15.5433 40.2884C18.726 37.0468 23.1604 35.0552 28.0405 35.0552Z" fill="#1CC7D0"/>
<path d="M28.0405 34.7373C30.4804 34.7373 32.8144 35.2245 34.9361 36.1144C37.1428 37.0255 39.116 38.3815 40.771 40.0552C40.8983 40.1825 40.8983 40.3732 40.771 40.5002C39.116 42.1739 37.1428 43.5299 34.9361 44.441C32.8144 45.3309 30.4804 45.8181 28.0405 45.8181C25.6005 45.8181 23.2666 45.3309 21.1448 44.441C18.9594 43.5299 16.9861 42.1739 15.3312 40.5002C15.2039 40.3732 15.2039 40.1825 15.3312 40.0552C16.9861 38.3815 18.9594 37.0255 21.166 36.1144C23.2666 35.2245 25.6005 34.7373 28.0405 34.7373ZM34.6816 36.7077C32.6446 35.8603 30.3957 35.373 28.0405 35.373C25.6853 35.373 23.4363 35.8391 21.3993 36.7077C19.3837 37.5551 17.5378 38.7839 16.0101 40.2883C17.559 41.7927 19.3837 43.0215 21.3993 43.8689C23.4363 44.7163 25.6853 45.2036 28.0405 45.2036C30.3957 45.2036 32.6446 44.7376 34.6816 43.8689C36.6971 43.0215 38.5431 41.7927 40.0709 40.2883C38.5431 38.7629 36.6971 37.5551 34.6816 36.7077Z" fill="#4C4C4C"/>
<path d="M28.6559 31.5806H27.425V40.3942H28.6559V31.5806Z" fill="#2BAF2B"/>
<path d="M27.4251 31.2629H28.6559C28.8256 31.2629 28.9741 31.4112 28.9741 31.5807V40.3943C28.9741 40.5638 28.8256 40.7123 28.6559 40.7123H27.4251C27.2553 40.7123 27.1068 40.5638 27.1068 40.3943V31.5807C27.1068 31.39 27.2553 31.2629 27.4251 31.2629ZM28.3374 31.8985H27.7435V40.0766H28.3374V31.8985Z" fill="#4C4C4C"/>
<path fill-rule="evenodd" clip-rule="evenodd" d="M28.0405 33.0426C15.0553 33.424 16.9861 20.4152 16.9861 20.4152C17.0073 20.4152 30.1622 20.2456 28.0405 33.0426Z" fill="#EF5734"/>
<path d="M28.0404 33.3602C23.606 33.4873 20.8477 32.0677 19.1715 30.1398C18.1531 28.9746 17.5166 27.5973 17.1346 26.2626C16.7527 24.949 16.6254 23.6565 16.583 22.6184C16.5405 21.1989 16.7952 20.1607 16.7952 20.1607C16.7952 20.1607 17.8773 20.0548 19.2564 20.2879C20.2748 20.4573 21.5478 20.754 22.7996 21.3049C24.0727 21.8556 25.3246 22.682 26.3642 23.8472C28.0617 25.7752 29.0801 28.699 28.3587 33.0846C28.3374 33.2543 28.1889 33.3814 28.0404 33.3602ZM19.6383 29.7372C21.1872 31.5169 23.712 32.8093 27.7647 32.7457C28.3799 28.7203 27.425 26.0719 25.8762 24.2922C24.9214 23.1905 23.7333 22.4489 22.5452 21.9192C21.3358 21.3896 20.1263 21.093 19.1503 20.9447C17.9409 20.754 17.1983 20.6692 17.1983 20.6692C17.1983 20.6692 17.1771 21.4108 17.1983 22.6396C17.2195 23.6353 17.3468 24.8643 17.7287 26.1143C18.0894 27.3644 18.6835 28.6354 19.6383 29.7372Z" fill="#4C4C4C"/>
<path fill-rule="evenodd" clip-rule="evenodd" d="M27.998 33.0426C40.9833 33.424 39.0523 20.4152 39.0523 20.4152C39.0523 20.4152 25.8763 20.2456 27.998 33.0426Z" fill="#EF5734"/>
<path d="M28.2739 32.7457C32.3477 32.8093 34.8513 31.4956 36.4001 29.7372C37.355 28.6354 37.949 27.3644 38.3097 26.1143C38.6704 24.8431 38.7978 23.6143 38.8401 22.6396C38.8826 21.4108 38.8401 20.6692 38.8401 20.6692C38.8401 20.6692 38.0977 20.754 36.8881 20.9447C35.9122 21.1141 34.7029 21.3896 33.4933 21.9192C32.3052 22.4489 31.1171 23.2117 30.1622 24.2922C28.6134 26.0507 27.6585 28.7203 28.2739 32.7457ZM36.8881 30.1398C35.1908 32.0677 32.4537 33.4873 28.0192 33.3602C27.8707 33.3602 27.7223 33.2543 27.701 33.0846C26.9796 28.699 27.998 25.7964 29.6955 23.8472C30.7139 22.682 31.987 21.8556 33.26 21.3049C34.5119 20.754 35.785 20.4362 36.8033 20.2879C38.2037 20.0548 39.2645 20.1607 39.2645 20.1607C39.2645 20.1607 39.5192 21.2201 39.4767 22.6184C39.4555 23.6565 39.307 24.949 38.9251 26.2626C38.5431 27.5973 37.9067 28.9746 36.8881 30.1398Z" fill="#4C4C4C"/>
<path fill-rule="evenodd" clip-rule="evenodd" d="M28.0405 33.0426C14.8007 35.7756 14.4188 22.1313 14.4188 22.1101C14.4188 22.1101 27.8707 19.5465 28.0405 33.0426Z" fill="#EF5734"/>
<path d="M28.1042 33.3602C23.5848 34.2925 20.5083 33.3602 18.4289 31.6863C17.1559 30.6694 16.2648 29.3982 15.6282 28.1057C14.9917 26.8135 14.631 25.521 14.3976 24.4829C14.1006 23.0422 14.1642 21.9404 14.1642 21.9404C14.1642 21.9404 15.2463 21.6439 16.7103 21.6227C17.7924 21.6015 19.1503 21.6861 20.5295 22.0253C21.9298 22.3643 23.3938 22.9786 24.6457 23.9955C26.7249 25.6693 28.2739 28.4659 28.3374 33.0424C28.3587 33.1907 28.2527 33.339 28.1042 33.3602ZM18.8321 31.1991C20.7416 32.7245 23.5636 33.6143 27.7223 32.8093C27.616 28.5932 26.1732 26.0507 24.2637 24.5041C23.0756 23.5507 21.7176 22.9786 20.3809 22.6608C19.0442 22.343 17.75 22.2582 16.7103 22.2582C15.4373 22.2794 14.6522 22.343 14.6522 22.343C14.6522 22.343 14.7583 23.1056 15.0129 24.3557C15.2251 25.3728 15.5858 26.6016 16.1799 27.8304C16.7952 29.038 17.6439 30.2456 18.8321 31.1991Z" fill="#4C4C4C"/>
<path fill-rule="evenodd" clip-rule="evenodd" d="M28.0405 33.0426C41.2802 35.7756 41.6622 22.1313 41.6622 22.1101C41.6622 22.1101 28.2102 19.5465 28.0405 33.0426Z" fill="#EF5734"/>
<path d="M28.3587 32.7881C32.5174 33.5933 35.3393 32.7245 37.2488 31.1779C38.4371 30.2246 39.2645 29.0168 39.8799 27.8092C40.4739 26.5804 40.8346 25.3516 41.0468 24.3347C41.3015 23.0846 41.4075 22.3218 41.4075 22.3218C41.4075 22.3218 40.6224 22.2582 39.3495 22.237C38.3097 22.2158 37.0155 22.3006 35.6787 22.6396C34.3634 22.9573 32.9841 23.5294 31.796 24.4829C29.9287 26.0295 28.4649 28.5932 28.3587 32.7881ZM37.652 31.6863C35.5727 33.3602 32.4961 34.2925 27.9767 33.3602C27.8283 33.339 27.7223 33.1907 27.7223 33.0424C27.7858 28.4449 29.356 25.6693 31.414 23.9955C32.6871 22.9786 34.1299 22.3643 35.5303 22.0253C36.9306 21.6861 38.2674 21.6015 39.3495 21.6227C40.8133 21.6439 41.8954 21.9404 41.8954 21.9404C41.8954 21.9404 41.9592 23.0634 41.6622 24.4829C41.45 25.5423 41.068 26.8347 40.4316 28.1057C39.8162 29.3982 38.9251 30.6694 37.652 31.6863Z" fill="#4C4C4C"/>
<path fill-rule="evenodd" clip-rule="evenodd" d="M28.0405 33.0426C14.6522 31.1568 18.9169 18.1693 18.9381 18.1693C18.9381 18.1482 32.4536 20.288 28.0405 33.0426Z" fill="#DA121A"/>
<path d="M27.998 33.3602C23.4576 32.7245 20.8902 30.8178 19.4898 28.5508C18.6411 27.1737 18.2168 25.6482 18.047 24.2074C17.8773 22.7879 17.9834 21.432 18.1319 20.3515C18.3441 18.9108 18.7684 17.8726 18.7684 17.8726C18.8957 17.7879 19.0655 17.809 19.1503 17.915C19.5959 17.9785 20.3597 18.1268 21.2721 18.4446C22.2905 18.8048 23.5423 19.3345 24.7306 20.1184C25.94 20.9235 27.0856 21.9617 27.9345 23.36C29.3136 25.6269 29.844 28.7839 28.3587 33.1483C28.2952 33.2966 28.1465 33.3815 27.998 33.3602ZM20.0202 28.2119C21.3146 30.2881 23.6696 32.0466 27.8283 32.6823C29.1438 28.6991 28.6559 25.7964 27.3828 23.699C26.5977 22.4065 25.4943 21.4108 24.3699 20.6481C23.2241 19.8854 22.036 19.3769 21.0599 19.0379C19.9142 18.6565 19.1715 18.4446 19.0867 18.4446C19.0655 18.5082 18.9169 19.2709 18.7472 20.4574C18.5987 21.4745 18.5138 22.7879 18.6623 24.144C18.8321 25.4999 19.214 26.9194 20.0202 28.2119Z" fill="#4C4C4C"/>
<path fill-rule="evenodd" clip-rule="evenodd" d="M28.1465 33.0426C41.5347 31.1569 37.27 18.1694 37.2488 18.1482C37.2488 18.1482 23.7333 20.2881 28.1465 33.0426Z" fill="#DA121A"/>
<path d="M28.4158 32.8832C32.5745 32.2475 34.9297 30.489 36.2238 28.4128C37.0302 27.1203 37.4122 25.7008 37.5607 24.3449C37.7091 22.9888 37.6244 21.6751 37.4757 20.6583C37.306 19.4506 37.1575 18.7091 37.1362 18.6455C37.0727 18.6667 36.3301 18.8574 35.1842 19.26C34.2083 19.5989 33.02 20.1074 31.8744 20.8701C30.7286 21.6117 29.6464 22.6074 28.8615 23.9211C27.5884 25.9761 27.0793 28.8788 28.4158 32.8832ZM36.7543 28.7305C35.354 30.9975 32.7868 32.9042 28.2461 33.5399C28.0976 33.5611 27.9491 33.4763 27.9067 33.328C26.4001 28.9846 26.9308 25.8278 28.3311 23.5397C29.1797 22.1414 30.3254 21.1032 31.5349 20.2981C32.723 19.5142 33.9749 18.9633 34.9932 18.6243C35.8844 18.3065 36.6695 18.1794 37.0939 18.0947C37.2 17.9887 37.3484 17.9675 37.4757 18.0523C37.4757 18.0523 37.9001 19.0905 38.1123 20.5312C38.2608 21.5905 38.3458 22.9464 38.1971 24.3871C38.0274 25.8278 37.6244 27.3534 36.7543 28.7305Z" fill="#4C4C4C"/>
<path fill-rule="evenodd" clip-rule="evenodd" d="M28.0405 33.0425C17.6015 24.4618 28.0405 15.5845 28.0405 15.5845C28.0405 15.6057 38.4796 24.4618 28.0405 33.0425Z" fill="#DA121A"/>
<path d="M27.8282 33.2967C24.2637 30.3518 23.0756 27.3855 23.0756 24.7159C23.0756 23.1057 23.5211 21.6016 24.1152 20.288C24.7306 18.9956 25.4943 17.8938 26.1732 17.0676C27.1068 15.9447 27.998 15.2878 28.0192 15.2878C28.0192 15.2878 28.9316 15.9447 29.8652 17.0676C30.5441 17.8938 31.3293 18.9956 31.9232 20.288C32.5386 21.6016 32.9628 23.0847 32.9628 24.7159C32.9628 27.3855 31.7747 30.373 28.2102 33.2967C28.1254 33.4027 27.9555 33.3815 27.8282 33.2967ZM23.712 24.7159C23.712 27.1738 24.7941 29.9067 28.0405 32.6399C31.2655 29.9067 32.3689 27.1526 32.3689 24.7159C32.3689 23.1906 31.9657 21.7923 31.3715 20.5634C30.7988 19.3345 30.0562 18.2752 29.3983 17.4701C28.5921 16.4955 28.0405 15.9235 28.0405 15.9235C28.0405 15.9235 27.51 16.4955 26.6826 17.4701C26.0247 18.2752 25.2821 19.3134 24.7094 20.5634C24.1365 21.7923 23.712 23.1906 23.712 24.7159Z" fill="#4C4C4C"/>
<path fill-rule="evenodd" clip-rule="evenodd" d="M28.0405 33.0002C20.678 26.9408 28.0405 20.6694 28.0405 20.6694C28.0405 20.6906 35.403 26.9408 28.0405 33.0002Z" fill="#FFCC2F"/>
<path d="M27.8283 33.2545C25.2821 31.1569 24.4334 29.0382 24.4334 27.1102C24.4334 25.9451 24.7517 24.8855 25.1761 23.9535C25.6005 23.0212 26.1522 22.2372 26.6401 21.6653C27.3191 20.8389 27.998 20.3728 28.0192 20.3728C28.0192 20.3728 28.7194 20.8389 29.3983 21.6653C29.8865 22.2584 30.4381 23.0424 30.8624 23.9535C31.308 24.8855 31.605 25.9661 31.605 27.1102C31.605 29.017 30.7564 31.1569 28.2102 33.2545C28.1254 33.3604 27.9555 33.3392 27.8283 33.2545ZM25.0913 27.1102C25.0913 28.8051 25.8338 30.6908 28.0405 32.5976C30.2472 30.6908 30.9896 28.8051 30.9896 27.1102C30.9896 26.0509 30.6926 25.0762 30.2894 24.2076C29.8865 23.3389 29.356 22.5974 28.9104 22.0465C28.3587 21.3685 28.0192 20.9872 28.0192 20.9872C28.0192 20.9872 27.701 21.3685 27.1281 22.0465C26.6614 22.5974 26.1522 23.3389 25.749 24.2076C25.3671 25.0762 25.0913 26.0509 25.0913 27.1102Z" fill="#4C4C4C"/>
<path fill-rule="evenodd" clip-rule="evenodd" d="M28.0405 37.5342C32.1779 37.5342 35.9334 39.2078 38.6703 41.9198C35.7212 44.1655 32.0507 45.5004 28.0405 45.5004C24.0302 45.5004 20.3597 44.1655 17.4105 41.9198C20.1476 39.2078 23.903 37.5342 28.0405 37.5342Z" fill="#1CC7D0"/>
<path d="M28.0405 37.2163C30.1197 37.2163 32.093 37.6189 33.8965 38.3817C35.7849 39.1655 37.461 40.2885 38.8826 41.708C39.01 41.835 39.01 42.0257 38.8826 42.153C38.8826 42.153 38.8613 42.174 38.8401 42.174C37.3125 43.3394 35.594 44.2717 33.7267 44.886C31.9232 45.5005 30.0137 45.8182 28.0192 45.8182C26.0247 45.8182 24.094 45.5005 22.3117 44.886C20.4446 44.2505 18.726 43.3394 17.1983 42.174C17.0498 42.0682 17.0286 41.8775 17.1347 41.7292C17.1559 41.708 17.1559 41.708 17.1771 41.6868C18.5987 40.2885 20.2749 39.1443 22.142 38.3817C23.988 37.6189 25.9612 37.2163 28.0405 37.2163ZM33.6632 38.9538C31.9232 38.2334 30.035 37.852 28.0405 37.852C26.046 37.852 24.1577 38.2544 22.4179 38.9538C20.7416 39.6529 19.214 40.6486 17.8985 41.8775C19.2989 42.8944 20.8477 43.7208 22.5239 44.2717C24.2425 44.8436 26.1097 45.1615 28.0405 45.1615C29.9712 45.1615 31.8172 44.8436 33.557 44.2717C35.2333 43.6996 36.7821 42.8944 38.1824 41.8775C36.8671 40.6486 35.3393 39.6529 33.6632 38.9538Z" fill="#4C4C4C"/>
<path fill-rule="evenodd" clip-rule="evenodd" d="M28.0405 40.2671C31.2018 40.2671 34.1087 41.4747 36.2941 43.4451C33.8329 44.7588 31.0321 45.5003 28.0405 45.5003C25.0488 45.5003 22.248 44.7588 19.7868 43.4451C21.9722 41.4747 24.8791 40.2671 28.0405 40.2671Z" fill="#1CC7D0"/>
<path d="M28.0405 39.9495C29.6318 39.9495 31.1593 40.246 32.5599 40.7969C34.0237 41.3478 35.3393 42.174 36.4851 43.2123C36.6123 43.3394 36.6336 43.5301 36.5063 43.6571C36.4851 43.6783 36.4426 43.6996 36.4214 43.7208C35.1483 44.3987 33.7904 44.9284 32.3689 45.2886C30.9896 45.6275 29.5257 45.8182 28.0405 45.8182C26.5552 45.8182 25.0913 45.6275 23.712 45.2886C22.2905 44.9284 20.9114 44.3987 19.6383 43.7208C19.4898 43.6359 19.4261 43.4452 19.511 43.2969C19.5322 43.2545 19.5534 43.2335 19.5959 43.2123C20.7416 42.1952 22.0572 41.369 23.5211 40.7969C24.9214 40.246 26.4492 39.9495 28.0405 39.9495ZM32.3476 41.3902C31.0108 40.8817 29.568 40.6062 28.0405 40.6062C26.5129 40.6062 25.0701 40.8817 23.7333 41.3902C22.5027 41.8562 21.3568 42.5342 20.3597 43.3818C21.4631 43.9327 22.6299 44.3775 23.8605 44.674C25.1973 45.0132 26.5976 45.1827 28.0405 45.1827C29.4833 45.1827 30.8836 45.0132 32.2204 44.674C33.451 44.3775 34.6179 43.9327 35.7212 43.3818C34.7241 42.5342 33.5782 41.8562 32.3476 41.3902Z" fill="#4C4C4C"/>
</svg>
