<svg width="147" height="56" viewBox="0 0 147 56" fill="none" xmlns="http://www.w3.org/2000/svg">
<path d="M61.2642 22.2304L64.3231 26.8334H61.3492L58.4814 22.4849H56.9094V26.8334H54.3815V14.5728H59.6497C60.9455 14.5728 61.9864 14.9334 62.7937 15.6758C63.5797 16.4183 63.9833 17.3516 63.9833 18.497C63.9833 19.3667 63.7496 20.1516 63.261 20.8092C62.7724 21.488 62.1139 21.9546 61.2642 22.2304ZM59.6497 16.8001H56.8882V20.1728H59.6497C60.1808 20.1728 60.6057 20.0243 60.9243 19.7061C61.2429 19.388 61.4129 18.9849 61.4129 18.497C61.4129 18.0092 61.2429 17.6061 60.9243 17.288C60.6057 16.9698 60.1808 16.8001 59.6497 16.8001ZM69.4851 17.6273C71.0146 17.6273 72.2255 18.1789 73.1389 19.2607C74.0523 20.3425 74.3922 21.6577 74.1373 23.1637H67.1697C67.3396 23.7152 67.637 24.1607 68.0831 24.4789C68.5292 24.8183 69.039 24.988 69.6551 24.988C70.6747 24.988 71.4395 24.5637 71.9068 23.7364L73.8612 24.6061C73.4575 25.3486 72.884 25.9213 72.1405 26.3667C71.397 26.8122 70.5473 27.0243 69.6126 27.0243C68.2318 27.0243 67.0847 26.5789 66.15 25.6667C65.2366 24.7758 64.7692 23.6516 64.7692 22.3152C64.7692 20.9789 65.2153 19.8758 66.1288 18.9637C67.021 18.0728 68.1469 17.6273 69.4851 17.6273ZM69.4851 19.6425C68.9541 19.6425 68.4867 19.791 68.0831 20.1092C67.6583 20.4273 67.3821 20.8304 67.2122 21.3395H71.7794C71.6094 20.8304 71.3333 20.4061 70.9297 20.1092C70.526 19.8122 70.0375 19.6425 69.4851 19.6425ZM78.1522 26.8334H75.7942V13.8728H78.1522V26.8334ZM81.0837 25.6667C80.1703 24.7758 79.7029 23.6516 79.7029 22.3152C79.7029 20.9789 80.1703 19.8758 81.0837 18.9637C81.9971 18.0728 83.1655 17.6061 84.5463 17.6061C85.9271 17.6061 87.0742 18.0516 88.0088 18.9637C88.9223 19.8546 89.3896 20.9789 89.3896 22.3152C89.3896 23.6516 88.9223 24.7546 88.0088 25.6667C87.0954 26.5577 85.9271 27.0243 84.5463 27.0243C83.1442 27.0031 81.9971 26.5577 81.0837 25.6667ZM82.1458 22.3152C82.1458 23.0364 82.3795 23.6516 82.8256 24.1183C83.2717 24.6061 83.8453 24.8395 84.525 24.8395C85.2048 24.8395 85.7784 24.6061 86.2244 24.1183C86.6705 23.6304 86.9042 23.0364 86.9042 22.3152C86.9042 21.594 86.6705 21.0001 86.2244 20.5122C85.7784 20.0243 85.2048 19.791 84.525 19.791C83.8453 19.791 83.2717 20.0243 82.8256 20.5122C82.3795 21.0001 82.1458 21.594 82.1458 22.3152ZM91.6626 19.8758H89.8357V17.797H91.6626V15.1455L94.0205 14.4031V17.797H96.3785V19.8758H94.0205V23.4607C94.0205 24.3092 94.4454 24.7334 95.2951 24.7334H96.3573V26.8122H95.2951C94.063 26.8122 93.1284 26.5152 92.5336 25.9425C91.9388 25.3698 91.6414 24.4789 91.6414 23.3122V19.8758H91.6626ZM97.6318 23.0152V17.797H99.9898V23.0152C99.9898 23.5667 100.16 24.0122 100.521 24.3516C100.882 24.691 101.328 24.8607 101.88 24.8607C102.433 24.8607 102.879 24.691 103.24 24.3516C103.601 24.0122 103.771 23.5667 103.771 23.0152V17.797H106.129V23.0152C106.129 24.2031 105.725 25.1577 104.939 25.9001C104.153 26.6425 103.134 27.0031 101.88 27.0031C100.648 27.0031 99.6286 26.6425 98.8214 25.9001C98.0354 25.1577 97.6318 24.1819 97.6318 23.0152ZM107.403 24.394L109.761 23.9061C109.868 24.7334 110.399 25.1364 111.376 25.1364C111.864 25.1364 112.247 25.0516 112.523 24.8607C112.82 24.6698 112.969 24.4577 112.969 24.1819C112.969 23.9273 112.842 23.7152 112.565 23.5667C112.311 23.4183 111.971 23.3122 111.588 23.2698C111.206 23.2273 110.76 23.1425 110.314 23.0364C109.846 22.9304 109.422 22.8031 109.039 22.6546C108.657 22.5061 108.317 22.2304 108.062 21.8698C107.807 21.488 107.658 21.0213 107.658 20.4698C107.658 19.6425 108.02 18.9637 108.721 18.4334C109.422 17.8819 110.314 17.6273 111.376 17.6273C112.438 17.6273 113.309 17.8607 114.01 18.3273C114.69 18.794 115.115 19.4304 115.242 20.2364L112.884 20.7243C112.757 19.897 112.268 19.494 111.376 19.494C110.994 19.494 110.675 19.5789 110.42 19.7486C110.165 19.9183 110.038 20.1304 110.038 20.3849C110.038 20.6607 110.165 20.8728 110.441 21.0213C110.696 21.1698 111.036 21.2758 111.418 21.3183C111.801 21.3607 112.247 21.4455 112.693 21.5516C113.16 21.6577 113.585 21.7849 113.968 21.9546C114.35 22.1031 114.69 22.3789 114.945 22.7607C115.2 23.1425 115.348 23.6092 115.348 24.1819C115.348 24.988 114.966 25.6667 114.201 26.2183C113.436 26.7698 112.481 27.0455 111.376 27.0455C110.271 27.0455 109.358 26.8122 108.657 26.3455C107.956 25.8152 107.531 25.2001 107.403 24.394ZM59.0974 37.694L63.0698 43.3152H62.1989L58.2265 37.694H55.3587V43.3152H54.6577V31.0546H59.3311C60.3295 31.0546 61.1792 31.3728 61.8377 32.0092C62.4963 32.6455 62.8362 33.4304 62.8362 34.3637C62.8362 35.297 62.4963 36.0819 61.8377 36.7183C61.1792 37.3546 60.3507 37.6728 59.3311 37.6728H59.0974V37.694ZM59.3311 31.7122H55.3587V37.0152H59.3311C60.1383 37.0152 60.7969 36.7607 61.3279 36.2516C61.859 35.7425 62.1139 35.1061 62.1139 34.3637C62.1139 33.6213 61.859 32.9849 61.3279 32.4758C60.7969 31.9667 60.1383 31.7122 59.3311 31.7122ZM68.5929 34.3849C69.8888 34.3849 70.9509 34.8304 71.8006 35.7213C72.6503 36.6122 73.0752 37.7364 73.0539 39.094H64.8117C64.8542 40.1758 65.2366 41.0667 65.9801 41.7667C66.7023 42.4667 67.6158 42.8273 68.6779 42.8273C69.4639 42.8273 70.1862 42.6152 70.8022 42.2122C71.4182 41.8092 71.8856 41.2577 72.2042 40.5577L72.8627 40.791C72.5016 41.6183 71.9705 42.2546 71.227 42.7425C70.4836 43.2304 69.6338 43.4849 68.6779 43.4849C67.3821 43.4849 66.2987 43.0607 65.4278 42.191C64.5568 41.3213 64.132 40.2395 64.132 38.9455C64.132 37.6516 64.5568 36.5698 65.4065 35.7001C66.2562 34.8092 67.3184 34.3849 68.5929 34.3849ZM68.5929 35.0425C67.6158 35.0425 66.7661 35.3607 66.0863 35.997C65.3853 36.6334 64.9817 37.4395 64.8755 38.4152H72.3529C72.2679 37.4607 71.8643 36.6546 71.1633 36.0183C70.4411 35.3607 69.5914 35.0425 68.5929 35.0425ZM75.8792 43.3152H75.1782V30.3546H75.8792V43.3152ZM79.2781 42.1698C78.4071 41.3001 77.9823 40.2183 77.9823 38.9243C77.9823 37.6304 78.4071 36.5486 79.2781 35.6789C80.149 34.8092 81.2324 34.3849 82.5282 34.3849C83.824 34.3849 84.9074 34.8092 85.7783 35.6789C86.6493 36.5486 87.0742 37.6304 87.0742 38.9243C87.0742 40.2183 86.6493 41.3001 85.7783 42.1698C84.9074 43.0395 83.824 43.4637 82.5282 43.4637C81.2324 43.4849 80.149 43.0395 79.2781 42.1698ZM79.7879 36.1455C79.0444 36.888 78.6833 37.8213 78.6833 38.9243C78.6833 40.0273 79.0444 40.9607 79.7879 41.7031C80.5314 42.4455 81.4448 42.8061 82.5495 42.8061C83.6541 42.8061 84.5675 42.4455 85.311 41.7031C86.0545 40.9607 86.4156 40.0273 86.4156 38.9243C86.4156 37.8213 86.0545 36.888 85.311 36.1455C84.5675 35.4031 83.6541 35.0425 82.5495 35.0425C81.4448 35.0425 80.5101 35.4031 79.7879 36.1455ZM89.9844 42.1698C89.1135 41.3001 88.6886 40.2183 88.6886 38.9243C88.6886 37.6304 89.1135 36.5486 89.9844 35.6789C90.8554 34.8092 91.9388 34.3849 93.2346 34.3849C94.1905 34.3849 95.0402 34.6395 95.7837 35.1273C96.5272 35.6152 97.0795 36.2728 97.4194 37.0789L96.7609 37.3122C96.4422 36.6334 95.9749 36.0819 95.3588 35.6577C94.7428 35.2546 94.0418 35.0425 93.2346 35.0425C92.1299 35.0425 91.2165 35.4031 90.473 36.1455C89.7295 36.888 89.3684 37.8213 89.3684 38.9243C89.3684 40.0273 89.7295 40.9607 90.473 41.7031C91.2165 42.4455 92.1299 42.8061 93.2346 42.8061C94.0205 42.8061 94.7428 42.594 95.3588 42.191C95.9749 41.788 96.4422 41.2364 96.7609 40.5364L97.4194 40.7698C97.0583 41.597 96.5272 42.2334 95.7837 42.7213C95.0402 43.2092 94.1905 43.4637 93.2346 43.4637C91.9388 43.4849 90.8554 43.0395 89.9844 42.1698ZM102.985 34.3849C103.898 34.3849 104.663 34.6395 105.258 35.1273C105.853 35.6152 106.15 36.294 106.15 37.1425V43.3152H105.449V40.8122C104.791 42.594 103.559 43.4849 101.774 43.4849C100.924 43.4849 100.266 43.2728 99.7561 42.8486C99.2463 42.4243 99.0126 41.8728 99.0126 41.1516C99.0126 40.4304 99.2675 39.8577 99.7986 39.4546C100.308 39.0304 101.031 38.7758 101.902 38.6698L104.196 38.4152C104.621 38.3728 104.939 38.2455 105.152 38.0546C105.364 37.8637 105.47 37.588 105.47 37.2061C105.47 36.5273 105.237 35.997 104.791 35.6152C104.345 35.2334 103.728 35.0425 102.985 35.0425C102.263 35.0425 101.625 35.2122 101.073 35.5728C100.521 35.9334 100.16 36.5061 99.9473 37.2698L99.2888 37.0152C99.5437 36.1243 99.9898 35.4455 100.67 35.0213C101.328 34.597 102.114 34.3849 102.985 34.3849ZM101.795 42.8061C102.858 42.8061 103.728 42.4455 104.408 41.7455C105.088 41.0455 105.428 40.2183 105.428 39.2637V38.1183C105.279 38.6698 104.791 38.988 103.983 39.0728L101.859 39.3273C101.201 39.4122 100.67 39.6031 100.266 39.9001C99.8623 40.197 99.6711 40.6213 99.6711 41.1516C99.6711 41.6607 99.8623 42.0637 100.266 42.3607C100.67 42.6576 101.179 42.8061 101.795 42.8061ZM109.294 35.2122H107.191V34.5546H109.294V31.0758L109.995 30.8637V34.5334H112.884V35.191H109.995V40.4728C109.995 41.2364 110.144 41.788 110.462 42.1274C110.781 42.4455 111.312 42.6152 112.098 42.6152H112.884V43.2728H112.098C111.142 43.2728 110.441 43.0395 109.974 42.594C109.528 42.1486 109.294 41.4273 109.294 40.4728V35.2122ZM114.966 32.2213C114.86 32.1152 114.817 31.988 114.817 31.8395C114.817 31.691 114.86 31.5637 114.966 31.4577C115.072 31.3516 115.2 31.3092 115.348 31.3092C115.497 31.3092 115.624 31.3516 115.731 31.4577C115.837 31.5637 115.879 31.691 115.879 31.8395C115.879 31.988 115.837 32.1152 115.731 32.2213C115.624 32.3273 115.497 32.3698 115.348 32.3698C115.2 32.3698 115.072 32.3061 114.966 32.2213ZM115.709 43.3152H115.008V34.5546H115.709V43.3152ZM119.108 42.1698C118.237 41.3001 117.812 40.2183 117.812 38.9243C117.812 37.6304 118.237 36.5486 119.108 35.6789C119.979 34.8092 121.063 34.3849 122.358 34.3849C123.654 34.3849 124.738 34.8092 125.609 35.6789C126.48 36.5486 126.904 37.6304 126.904 38.9243C126.904 40.2183 126.48 41.3001 125.609 42.1698C124.738 43.0395 123.654 43.4637 122.358 43.4637C121.063 43.4849 119.979 43.0395 119.108 42.1698ZM119.618 36.1455C118.875 36.888 118.513 37.8213 118.513 38.9243C118.513 40.0273 118.875 40.9607 119.618 41.7031C120.362 42.4455 121.275 42.8061 122.38 42.8061C123.484 42.8061 124.398 42.4455 125.141 41.7031C125.885 40.9607 126.246 40.0273 126.246 38.9243C126.246 37.8213 125.885 36.888 125.141 36.1455C124.398 35.4031 123.484 35.0425 122.38 35.0425C121.275 35.0425 120.34 35.4031 119.618 36.1455ZM133.086 34.3849C134.148 34.3849 135.04 34.7455 135.741 35.488C136.464 36.2304 136.803 37.1425 136.803 38.2455V43.294H136.102V38.2455C136.102 37.3334 135.805 36.5698 135.189 35.9546C134.594 35.3395 133.851 35.0425 132.98 35.0425C132.024 35.0425 131.259 35.3395 130.622 35.9546C130.006 36.5698 129.687 37.3334 129.687 38.2455V43.294H128.986V34.5334H129.687V36.7183C129.963 35.997 130.388 35.4243 130.983 35.0001C131.599 34.597 132.3 34.3849 133.086 34.3849Z" fill="#4C4C4C"/>
<path d="M28.0404 45.5003C37.7195 45.5003 45.5662 37.665 45.5662 27.9999C45.5662 18.3347 37.7195 10.4995 28.0404 10.4995C18.3613 10.4995 10.5148 18.3347 10.5148 27.9999C10.5148 37.665 18.3613 45.5003 28.0404 45.5003Z" fill="#FFCC2F"/>
<path d="M28.0405 10.1819C32.9628 10.1819 37.4185 12.1734 40.6648 15.3939C43.8899 18.6143 45.8844 23.0636 45.8844 28.0001C45.8844 32.9366 43.8899 37.3646 40.6648 40.6062C37.4398 43.8266 32.9841 45.8182 28.0405 45.8182C23.1181 45.8182 18.6623 43.8266 15.416 40.6062C12.1698 37.3858 10.1965 32.9153 10.1965 28.0001C10.1965 23.0848 12.191 18.6355 15.416 15.3939C18.6411 12.1523 23.1181 10.1819 28.0405 10.1819ZM40.1981 15.86C37.1003 12.7455 32.7931 10.8175 28.0405 10.8175C23.2878 10.8175 18.9806 12.7455 15.8828 15.86C12.7851 18.9745 10.8331 23.2543 10.8331 28.0001C10.8331 32.7459 12.7638 37.0468 15.8828 40.1402C19.0018 43.2336 23.3091 45.1827 28.0405 45.1827C32.7719 45.1827 37.1003 43.2546 40.1981 40.1402C43.296 37.0256 45.248 32.7246 45.248 28.0001C45.248 23.2755 43.317 18.9533 40.1981 15.86Z" fill="#4C4C4C"/>
<path fill-rule="evenodd" clip-rule="evenodd" d="M28.0405 35.0552C32.9206 35.0552 37.355 37.0468 40.5376 40.2884C37.355 43.5088 32.9418 45.5217 28.0405 45.5217C23.1604 45.5217 18.726 43.5301 15.5433 40.2884C18.726 37.0468 23.1604 35.0552 28.0405 35.0552Z" fill="#1CC7D0"/>
<path d="M28.0404 34.7373C30.4804 34.7373 32.8143 35.2245 34.9361 36.1144C37.1427 37.0255 39.116 38.3815 40.771 40.0552C40.8983 40.1825 40.8983 40.3732 40.771 40.5002C39.116 42.1739 37.1427 43.5299 34.9361 44.441C32.8143 45.3309 30.4804 45.8181 28.0404 45.8181C25.6005 45.8181 23.2665 45.3309 21.1447 44.441C18.9593 43.5299 16.9861 42.1739 15.3311 40.5002C15.2038 40.3732 15.2038 40.1825 15.3311 40.0552C16.9861 38.3815 18.9593 37.0255 21.166 36.1144C23.2665 35.2245 25.6005 34.7373 28.0404 34.7373ZM34.6816 36.7077C32.6446 35.8603 30.3956 35.373 28.0404 35.373C25.6852 35.373 23.4363 35.8391 21.3993 36.7077C19.3837 37.5551 17.5378 38.7839 16.0101 40.2883C17.559 41.7927 19.3837 43.0215 21.3993 43.8689C23.4363 44.7163 25.6852 45.2036 28.0404 45.2036C30.3956 45.2036 32.6446 44.7376 34.6816 43.8689C36.6971 43.0215 38.5431 41.7927 40.0709 40.2883C38.5431 38.7629 36.6971 37.5551 34.6816 36.7077Z" fill="#4C4C4C"/>
<path d="M28.6559 31.5806H27.425V40.3942H28.6559V31.5806Z" fill="#2BAF2B"/>
<path d="M27.425 31.2629H28.6558C28.8256 31.2629 28.9741 31.4112 28.9741 31.5807V40.3943C28.9741 40.5638 28.8256 40.7123 28.6558 40.7123H27.425C27.2553 40.7123 27.1068 40.5638 27.1068 40.3943V31.5807C27.1068 31.39 27.2553 31.2629 27.425 31.2629ZM28.3374 31.8985H27.7435V40.0766H28.3374V31.8985Z" fill="#4C4C4C"/>
<path fill-rule="evenodd" clip-rule="evenodd" d="M28.0405 33.0426C15.0554 33.424 16.9861 20.4152 16.9861 20.4152C17.0074 20.4152 30.1622 20.2456 28.0405 33.0426Z" fill="#EF5734"/>
<path d="M28.0405 33.3602C23.6061 33.4873 20.8477 32.0677 19.1716 30.1398C18.1531 28.9746 17.5166 27.5973 17.1347 26.2626C16.7528 24.949 16.6255 23.6565 16.583 22.6184C16.5406 21.1989 16.7952 20.1607 16.7952 20.1607C16.7952 20.1607 17.8773 20.0548 19.2564 20.2879C20.2749 20.4573 21.5478 20.754 22.7997 21.3049C24.0728 21.8556 25.3246 22.682 26.3642 23.8472C28.0617 25.7752 29.0801 28.699 28.3587 33.0846C28.3375 33.2543 28.189 33.3814 28.0405 33.3602ZM19.6383 29.7372C21.1872 31.5169 23.7121 32.8093 27.7647 32.7457C28.3799 28.7203 27.4251 26.0719 25.8763 24.2922C24.9214 23.1905 23.7333 22.4489 22.5452 21.9192C21.3358 21.3896 20.1264 21.093 19.1503 20.9447C17.9409 20.754 17.1983 20.6692 17.1983 20.6692C17.1983 20.6692 17.1771 21.4108 17.1983 22.6396C17.2195 23.6353 17.3468 24.8643 17.7288 26.1143C18.0895 27.3644 18.6835 28.6354 19.6383 29.7372Z" fill="#4C4C4C"/>
<path fill-rule="evenodd" clip-rule="evenodd" d="M27.998 33.0426C40.9833 33.424 39.0523 20.4152 39.0523 20.4152C39.0523 20.4152 25.8763 20.2456 27.998 33.0426Z" fill="#EF5734"/>
<path d="M28.2739 32.7457C32.3477 32.8093 34.8513 31.4956 36.4001 29.7372C37.355 28.6354 37.949 27.3644 38.3097 26.1143C38.6704 24.8431 38.7978 23.6143 38.8401 22.6396C38.8826 21.4108 38.8401 20.6692 38.8401 20.6692C38.8401 20.6692 38.0977 20.754 36.8881 20.9447C35.9122 21.1141 34.7029 21.3896 33.4933 21.9192C32.3052 22.4489 31.1171 23.2117 30.1622 24.2922C28.6134 26.0507 27.6585 28.7203 28.2739 32.7457ZM36.8881 30.1398C35.1908 32.0677 32.4537 33.4873 28.0192 33.3602C27.8707 33.3602 27.7223 33.2543 27.701 33.0846C26.9796 28.699 27.998 25.7964 29.6955 23.8472C30.7139 22.682 31.987 21.8556 33.26 21.3049C34.5119 20.754 35.785 20.4362 36.8033 20.2879C38.2037 20.0548 39.2645 20.1607 39.2645 20.1607C39.2645 20.1607 39.5192 21.2201 39.4767 22.6184C39.4555 23.6565 39.307 24.949 38.9251 26.2626C38.5431 27.5973 37.9067 28.9746 36.8881 30.1398Z" fill="#4C4C4C"/>
<path fill-rule="evenodd" clip-rule="evenodd" d="M28.0405 33.0426C14.8007 35.7756 14.4188 22.1313 14.4188 22.1101C14.4188 22.1101 27.8707 19.5465 28.0405 33.0426Z" fill="#EF5734"/>
<path d="M28.1042 33.3602C23.5848 34.2925 20.5082 33.3602 18.4289 31.6863C17.1559 30.6694 16.2647 29.3982 15.6282 28.1057C14.9917 26.8135 14.631 25.521 14.3976 24.4829C14.1005 23.0422 14.1642 21.9404 14.1642 21.9404C14.1642 21.9404 15.2463 21.6439 16.7103 21.6227C17.7924 21.6015 19.1503 21.6861 20.5294 22.0253C21.9297 22.3643 23.3938 22.9786 24.6456 23.9955C26.7249 25.6693 28.2739 28.4659 28.3374 33.0424C28.3587 33.1907 28.2527 33.339 28.1042 33.3602ZM18.832 31.1991C20.7416 32.7245 23.5635 33.6143 27.7222 32.8093C27.616 28.5932 26.1732 26.0507 24.2637 24.5041C23.0756 23.5507 21.7175 22.9786 20.3809 22.6608C19.0442 22.343 17.7499 22.2582 16.7103 22.2582C15.4372 22.2794 14.6522 22.343 14.6522 22.343C14.6522 22.343 14.7583 23.1056 15.0129 24.3557C15.2251 25.3728 15.5858 26.6016 16.1798 27.8304C16.7952 29.038 17.6438 30.2456 18.832 31.1991Z" fill="#4C4C4C"/>
<path fill-rule="evenodd" clip-rule="evenodd" d="M28.0405 33.0426C41.2802 35.7756 41.6622 22.1313 41.6622 22.1101C41.6622 22.1101 28.2102 19.5465 28.0405 33.0426Z" fill="#EF5734"/>
<path d="M28.3587 32.7881C32.5174 33.5933 35.3393 32.7245 37.2488 31.1779C38.4371 30.2246 39.2645 29.0168 39.8799 27.8092C40.4738 26.5804 40.8345 25.3516 41.0468 24.3347C41.3015 23.0846 41.4075 22.3218 41.4075 22.3218C41.4075 22.3218 40.6223 22.2582 39.3495 22.237C38.3096 22.2158 37.0155 22.3006 35.6787 22.6396C34.3634 22.9573 32.9841 23.5294 31.796 24.4829C29.9287 26.0295 28.4649 28.5932 28.3587 32.7881ZM37.652 31.6863C35.5727 33.3602 32.4961 34.2925 27.9767 33.3602C27.8282 33.339 27.7222 33.1907 27.7222 33.0424C27.7857 28.4449 29.356 25.6693 31.414 23.9955C32.6871 22.9786 34.1299 22.3643 35.5302 22.0253C36.9305 21.6861 38.2674 21.6015 39.3495 21.6227C40.8133 21.6439 41.8954 21.9404 41.8954 21.9404C41.8954 21.9404 41.9591 23.0634 41.6622 24.4829C41.4499 25.5423 41.068 26.8347 40.4316 28.1057C39.8162 29.3982 38.925 30.6694 37.652 31.6863Z" fill="#4C4C4C"/>
<path fill-rule="evenodd" clip-rule="evenodd" d="M28.0405 33.0426C14.6522 31.1568 18.9169 18.1693 18.9381 18.1693C18.9381 18.1482 32.4536 20.288 28.0405 33.0426Z" fill="#DA121A"/>
<path d="M27.998 33.3602C23.4575 32.7245 20.8901 30.8178 19.4898 28.5508C18.6411 27.1737 18.2167 25.6482 18.047 24.2074C17.8773 22.7879 17.9833 21.432 18.1319 20.3515C18.344 18.9108 18.7684 17.8726 18.7684 17.8726C18.8957 17.7879 19.0654 17.809 19.1503 17.915C19.5959 17.9785 20.3597 18.1268 21.2721 18.4446C22.2904 18.8048 23.5423 19.3345 24.7306 20.1184C25.94 20.9235 27.0856 21.9617 27.9344 23.36C29.3135 25.6269 29.844 28.7839 28.3587 33.1483C28.2951 33.2966 28.1464 33.3815 27.998 33.3602ZM20.0202 28.2119C21.3146 30.2881 23.6695 32.0466 27.8282 32.6823C29.1438 28.6991 28.6558 25.7964 27.3828 23.699C26.5976 22.4065 25.4943 21.4108 24.3699 20.6481C23.2241 19.8854 22.036 19.3769 21.0599 19.0379C19.9141 18.6565 19.1715 18.4446 19.0867 18.4446C19.0654 18.5082 18.9169 19.2709 18.7472 20.4574C18.5986 21.4745 18.5138 22.7879 18.6623 24.144C18.832 25.4999 19.214 26.9194 20.0202 28.2119Z" fill="#4C4C4C"/>
<path fill-rule="evenodd" clip-rule="evenodd" d="M28.1465 33.0426C41.5347 31.1569 37.27 18.1694 37.2488 18.1482C37.2488 18.1482 23.7333 20.2881 28.1465 33.0426Z" fill="#DA121A"/>
<path d="M28.3587 32.7035C32.5174 32.0678 34.8725 30.3093 36.1667 28.2331C36.973 26.9406 37.355 25.5211 37.5035 24.1652C37.6519 22.8091 37.5672 21.4955 37.4185 20.4786C37.2488 19.2709 37.1003 18.5294 37.079 18.4658C37.0155 18.487 36.2729 18.6777 35.127 19.0803C34.1511 19.4193 32.9628 19.9277 31.8172 20.6905C30.6714 21.432 29.5893 22.4277 28.8043 23.7414C27.5313 25.7964 27.0221 28.6991 28.3587 32.7035ZM36.6971 28.5508C35.2968 30.8178 32.7296 32.7245 28.1889 33.3602C28.0404 33.3815 27.892 33.2966 27.8495 33.1483C26.3429 28.8049 26.8736 25.6482 28.2739 23.36C29.1225 21.9617 30.2682 20.9235 31.4777 20.1184C32.6658 19.3345 33.9177 18.7836 34.9361 18.4446C35.8272 18.1268 36.6123 17.9997 37.0368 17.915C37.1428 17.809 37.2912 17.7879 37.4185 17.8726C37.4185 17.8726 37.8429 18.9108 38.0551 20.3515C38.2036 21.4108 38.2886 22.7667 38.1399 24.2074C37.9702 25.6482 37.5672 27.1737 36.6971 28.5508Z" fill="#4C4C4C"/>
<path fill-rule="evenodd" clip-rule="evenodd" d="M28.0404 33.0425C17.6014 24.4618 28.0404 15.5845 28.0404 15.5845C28.0404 15.6057 38.4796 24.4618 28.0404 33.0425Z" fill="#DA121A"/>
<path d="M27.8283 33.2967C24.2637 30.3518 23.0756 27.3855 23.0756 24.7159C23.0756 23.1057 23.5211 21.6016 24.1152 20.288C24.7306 18.9956 25.4943 17.8938 26.1732 17.0676C27.1069 15.9447 27.998 15.2878 28.0192 15.2878C28.0192 15.2878 28.9316 15.9447 29.8652 17.0676C30.5442 17.8938 31.3293 18.9956 31.9232 20.288C32.5386 21.6016 32.9629 23.0847 32.9629 24.7159C32.9629 27.3855 31.7748 30.373 28.2102 33.2967C28.1255 33.4027 27.9555 33.3815 27.8283 33.2967ZM23.7121 24.7159C23.7121 27.1738 24.7942 29.9067 28.0405 32.6399C31.2656 29.9067 32.3689 27.1526 32.3689 24.7159C32.3689 23.1906 31.9657 21.7923 31.3716 20.5634C30.7989 19.3345 30.0562 18.2752 29.3983 17.4701C28.5922 16.4955 28.0405 15.9235 28.0405 15.9235C28.0405 15.9235 27.5101 16.4955 26.6826 17.4701C26.0248 18.2752 25.2821 19.3134 24.7094 20.5634C24.1365 21.7923 23.7121 23.1906 23.7121 24.7159Z" fill="#4C4C4C"/>
<path fill-rule="evenodd" clip-rule="evenodd" d="M28.0405 33.0002C20.678 26.9408 28.0405 20.6694 28.0405 20.6694C28.0405 20.6906 35.403 26.9408 28.0405 33.0002Z" fill="#FFCC2F"/>
<path d="M27.8282 33.2545C25.2821 31.1569 24.4334 29.0382 24.4334 27.1102C24.4334 25.9451 24.7516 24.8855 25.1761 23.9535C25.6005 23.0212 26.1522 22.2372 26.6401 21.6653C27.319 20.8389 27.9979 20.3728 28.0192 20.3728C28.0192 20.3728 28.7194 20.8389 29.3983 21.6653C29.8864 22.2584 30.4381 23.0424 30.8623 23.9535C31.308 24.8855 31.605 25.9661 31.605 27.1102C31.605 29.017 30.7563 31.1569 28.2102 33.2545C28.1254 33.3604 27.9555 33.3392 27.8282 33.2545ZM25.0913 27.1102C25.0913 28.8051 25.8337 30.6908 28.0404 32.5976C30.2471 30.6908 30.9896 28.8051 30.9896 27.1102C30.9896 26.0509 30.6926 25.0762 30.2894 24.2076C29.8864 23.3389 29.356 22.5974 28.9103 22.0465C28.3587 21.3685 28.0192 20.9872 28.0192 20.9872C28.0192 20.9872 27.701 21.3685 27.1281 22.0465C26.6614 22.5974 26.1522 23.3389 25.749 24.2076C25.367 25.0762 25.0913 26.0509 25.0913 27.1102Z" fill="#4C4C4C"/>
<path fill-rule="evenodd" clip-rule="evenodd" d="M28.0405 37.5342C32.1779 37.5342 35.9335 39.2078 38.6704 41.9198C35.7212 44.1655 32.0507 45.5004 28.0405 45.5004C24.0303 45.5004 20.3598 44.1655 17.4105 41.9198C20.1476 39.2078 23.903 37.5342 28.0405 37.5342Z" fill="#1CC7D0"/>
<path d="M28.0405 37.2163C30.1197 37.2163 32.093 37.6189 33.8965 38.3817C35.7849 39.1655 37.461 40.2885 38.8826 41.708C39.01 41.835 39.01 42.0257 38.8826 42.153C38.8826 42.153 38.8613 42.174 38.8401 42.174C37.3125 43.3394 35.594 44.2717 33.7267 44.886C31.9232 45.5005 30.0137 45.8182 28.0192 45.8182C26.0247 45.8182 24.094 45.5005 22.3117 44.886C20.4446 44.2505 18.726 43.3394 17.1983 42.174C17.0498 42.0682 17.0286 41.8775 17.1347 41.7292C17.1559 41.708 17.1559 41.708 17.1771 41.6868C18.5987 40.2885 20.2749 39.1443 22.142 38.3817C23.988 37.6189 25.9612 37.2163 28.0405 37.2163ZM33.6632 38.9538C31.9232 38.2334 30.035 37.852 28.0405 37.852C26.046 37.852 24.1577 38.2544 22.4179 38.9538C20.7416 39.6529 19.214 40.6486 17.8985 41.8775C19.2989 42.8944 20.8477 43.7208 22.5239 44.2717C24.2425 44.8436 26.1097 45.1615 28.0405 45.1615C29.9712 45.1615 31.8172 44.8436 33.557 44.2717C35.2333 43.6996 36.7821 42.8944 38.1824 41.8775C36.8671 40.6486 35.3393 39.6529 33.6632 38.9538Z" fill="#4C4C4C"/>
<path fill-rule="evenodd" clip-rule="evenodd" d="M28.0405 40.2671C31.2018 40.2671 34.1087 41.4747 36.2942 43.4451C33.833 44.7588 31.0321 45.5003 28.0405 45.5003C25.0489 45.5003 22.248 44.7588 19.7869 43.4451C21.9723 41.4747 24.8791 40.2671 28.0405 40.2671Z" fill="#1CC7D0"/>
<path d="M28.0405 39.9495C29.6318 39.9495 31.1593 40.246 32.5599 40.7969C34.0237 41.3478 35.3393 42.174 36.4851 43.2123C36.6124 43.3394 36.6336 43.5301 36.5064 43.6571C36.4851 43.6783 36.4426 43.6996 36.4214 43.7208C35.1483 44.3987 33.7905 44.9284 32.3689 45.2886C30.9896 45.6275 29.5258 45.8182 28.0405 45.8182C26.5552 45.8182 25.0914 45.6275 23.7121 45.2886C22.2905 44.9284 20.9114 44.3987 19.6384 43.7208C19.4898 43.6359 19.4262 43.4452 19.511 43.2969C19.5323 43.2545 19.5535 43.2335 19.5959 43.2123C20.7417 42.1952 22.0572 41.369 23.5211 40.7969C24.9214 40.246 26.4492 39.9495 28.0405 39.9495ZM32.3477 41.3902C31.0109 40.8817 29.5681 40.6062 28.0405 40.6062C26.5129 40.6062 25.0701 40.8817 23.7333 41.3902C22.5027 41.8562 21.3569 42.5342 20.3597 43.3818C21.4631 43.9327 22.6299 44.3775 23.8605 44.674C25.1974 45.0132 26.5977 45.1827 28.0405 45.1827C29.4833 45.1827 30.8836 45.0132 32.2204 44.674C33.451 44.3775 34.6179 43.9327 35.7212 43.3818C34.7241 42.5342 33.5783 41.8562 32.3477 41.3902Z" fill="#4C4C4C"/>
</svg>
