<svg width="40" height="40" viewBox="0 0 40 40" fill="none" xmlns="http://www.w3.org/2000/svg">
<circle cx="20" cy="20" r="20" fill="#1CC7D0"/>
<path d="M9.2429 19.932L27.834 11.2621C27.8885 11.2365 27.9491 11.2266 28.0089 11.2336C28.0687 11.2406 28.1254 11.2642 28.1725 11.3017C28.2196 11.3392 28.2554 11.3891 28.2756 11.4458C28.2959 11.5025 28.2999 11.5638 28.2872 11.6227L24.7109 28.4522C24.6986 28.5099 24.6707 28.5632 24.6303 28.6062C24.5898 28.6492 24.5384 28.6803 24.4816 28.6961C24.4247 28.712 24.3646 28.7119 24.3078 28.696C24.2509 28.6801 24.1995 28.6489 24.1592 28.6059L17.9838 22.0562C17.9261 21.9942 17.8949 21.9122 17.8967 21.8276C17.8985 21.7429 17.9333 21.6623 17.9936 21.603L23.3848 16.332C23.4131 16.3008 23.429 16.2604 23.4297 16.2183C23.4304 16.1762 23.4158 16.1353 23.3885 16.1032C23.3612 16.0711 23.3232 16.0501 23.2816 16.0439C23.2399 16.0378 23.1975 16.0471 23.1621 16.0699L16.5493 20.9369C16.4885 20.9818 16.4139 21.0041 16.3385 21L9.35915 20.5429C9.28909 20.5367 9.22295 20.5078 9.1708 20.4606C9.11864 20.4134 9.0833 20.3505 9.07015 20.2814C9.057 20.2123 9.06676 20.1408 9.09793 20.0777C9.12911 20.0147 9.18 19.9635 9.2429 19.932Z" fill="white"/>
</svg>
