<svg width="40" height="40" viewBox="0 0 40 40" fill="none" xmlns="http://www.w3.org/2000/svg">
<circle cx="20" cy="20" r="20" fill="#2BAF2B"/>
<path d="M8.27539 31.5083L10.3266 25.4867C8.90664 23.099 8.40828 20.2747 8.92533 17.5452C9.44239 14.8158 10.9392 12.3694 13.1341 10.6666C15.329 8.96368 18.0705 8.12173 20.8429 8.29914C23.6152 8.47656 26.2271 9.66112 28.187 11.6299C30.1469 13.5986 31.3196 16.2159 31.4846 18.9889C31.6495 21.762 30.7952 24.4998 29.0824 26.687C27.3697 28.8741 24.9166 30.3599 22.1848 30.8646C19.453 31.3694 16.631 30.8583 14.2498 29.4276L8.27539 31.5083ZM14.437 27.798L14.7404 27.995C16.7937 29.3178 19.2635 29.8351 21.675 29.4476C24.0866 29.0601 26.2699 27.795 27.8054 25.8956C29.341 23.9961 30.1204 21.5961 29.9939 19.1569C29.8675 16.7177 28.8441 14.4112 27.1204 12.6807C25.3967 10.9501 23.0943 9.91764 20.6556 9.78155C18.2168 9.64545 15.8139 10.4154 13.9083 11.9434C12.0028 13.4714 10.7291 15.6496 10.332 18.0597C9.93497 20.4697 10.4425 22.9414 11.7572 25L11.9542 25.2975L10.6537 29.1202L14.437 27.798Z" fill="white"/>
<path d="M17.7814 15.6719C17.6029 15.4876 17.3738 15.3604 17.123 15.3064C16.8722 15.2524 16.611 15.274 16.3725 15.3685C15.4385 15.7488 14.2976 16.8207 15.9784 19.8335C18.3823 24.1251 23.4109 25.465 24.9498 23.067C25.0256 22.9512 25.0703 22.8179 25.0796 22.6799C25.089 22.5418 25.0626 22.4037 25.003 22.2788C24.806 21.8532 24.3154 21.203 23.1626 20.8246C23.0437 20.787 22.9176 20.7778 22.7944 20.7977C22.6712 20.8175 22.5544 20.8659 22.4533 20.9389C22.1735 21.136 21.8188 21.4552 21.742 21.8335C21.739 21.8519 21.7322 21.8694 21.7221 21.885C21.7119 21.9006 21.6987 21.914 21.6831 21.9242C21.6675 21.9344 21.65 21.9412 21.6316 21.9443C21.6133 21.9473 21.5945 21.9465 21.5764 21.9419C20.9617 21.7763 18.4021 20.8089 17.7439 19.1103C17.7156 19.0348 17.7145 18.9518 17.7407 18.8756C17.767 18.7994 17.819 18.7347 17.8878 18.6926C18.3075 18.4266 19.1232 17.8039 18.8533 17.1281C18.6562 16.6315 18.1676 16.068 17.7814 15.6719Z" fill="white"/>
</svg>
